<?xml version="1.0" standalone="no"?>
<!DOCTYPE svg PUBLIC "-//W3C//DTD SVG 20010904//EN"
 "http://www.w3.org/TR/2001/REC-SVG-20010904/DTD/svg10.dtd">
<svg version="1.0" xmlns="http://www.w3.org/2000/svg"
 width="120.000000pt" height="120.000000pt" viewBox="0 0 120.000000 120.000000"
 preserveAspectRatio="xMidYMid meet">
<metadata>
Created by potrace 1.11, written by Peter Selinger 2001-2013
</metadata>
<g transform="translate(0.000000,120.000000) scale(0.100000,-0.100000)"
fill="#000000" stroke="none">
<path d="M270 867 c0 -28 16 -50 108 -149 97 -103 111 -122 125 -175 10 -33
17 -62 17 -66 0 -3 -21 -7 -47 -9 -60 -4 -65 -21 -11 -43 24 -9 63 -30 87 -46
25 -16 58 -29 75 -29 38 0 86 44 86 80 0 43 27 68 124 114 90 44 164 105 151
127 -11 17 -35 9 -47 -16 -13 -30 -54 -49 -138 -65 -36 -6 -86 -22 -113 -35
-45 -21 -47 -21 -41 -3 14 44 -5 82 -64 129 -74 61 -295 219 -304 219 -5 0 -8
-15 -8 -33z"/>
</g>
</svg>
